<svg width="24" height="24" viewBox="0 0 24 24" fill="none" xmlns="http://www.w3.org/2000/svg">
<path d="M21.66 9.25002L20 7.74002L19.14 7.00002L12.66 1.25002C12.2825 0.91837 11.7175 0.91837 11.34 1.25002L4.86 7.00002L4 7.74002L2.34 9.25002C1.95391 9.62085 1.92835 10.23 2.28201 10.6318C2.63566 11.0337 3.24308 11.0858 3.66 10.75L4 10.45V19C4 20.6569 5.34314 22 7 22H9V16C9 14.3432 10.3431 13 12 13C13.6569 13 15 14.3432 15 16V22H17C18.6569 22 20 20.6569 20 19V10.45L20.34 10.75C20.7544 11.114 21.3852 11.0737 21.75 10.66C22.114 10.2456 22.0737 9.61477 21.66 9.25002Z" fill="#fff"/>
</svg>
