<svg width="24" height="24" viewBox="0 0 24 24" fill="none" xmlns="http://www.w3.org/2000/svg">
<path d="M21.39 11.6C21.9502 11.0274 22.1398 10.1878 21.88 9.43002C21.6361 8.66964 20.9802 8.11469 20.19 8.00002L15.9 7.34002C15.8595 7.32827 15.8264 7.29888 15.81 7.26002L13.93 3.26002C13.5931 2.4947 12.8362 2.0005 12 2.00002C11.1737 1.9966 10.4223 2.47801 10.08 3.23002L8.19999 7.23002C8.17925 7.26944 8.14301 7.29844 8.09999 7.31002L3.81999 8.00002C3.02895 8.11787 2.37156 8.67085 2.11999 9.43002C1.86989 10.19 2.06253 11.0261 2.61999 11.6L5.77999 14.85C5.79839 14.8914 5.79839 14.9386 5.77999 14.98L5.03999 19.52C4.89957 20.327 5.23666 21.1428 5.90582 21.6152C6.57499 22.0877 7.45647 22.1324 8.16999 21.73L11.9 19.66C11.9376 19.6405 11.9824 19.6405 12.02 19.66L15.75 21.73C16.4642 22.1236 17.3404 22.0749 18.0066 21.6045C18.6727 21.1342 19.0119 20.3248 18.88 19.52L18.19 15C18.1686 14.9629 18.1686 14.9171 18.19 14.88L21.39 11.6Z" fill="#fff"/>
</svg>
